#!OML:ASF H:\Terrain\Patient Classification 1\Animal1\Tuesday\Animal1.ASF
:FULLY-SPECIFIED
:DEGREES
1040
root 7.83287 16.7718 -3.74831 7.08476 7.67027 2.12979
lowerback 2.49495 -0.416803 0.321301
upperback 7.42844 -0.587824 0.881866
thorax 6.31753 -0.295689 0.720985
lowerneck -12.2335 2.39551 -5.12971
upperneck 6.65837 3.63882 4.31828
head 3.79572 1.90467 2.39323
rclavicle 2.34566e-014 -1.11319e-014
rhumerus 17.1618 -17.4753 -57.3646
rradius 23.2527
rwrist -35.6011
rhand -25.1103 35.785
rfingers 7.12502
rthumb 1.40503 5.80987
lclavicle 2.34566e-014 -1.11319e-014
lhumerus 11.6573 8.94914 67.2672
lradius 28.1452
lwrist -9.48747
lhand -5.06691 46.8283
lfingers 7.12502
lthumb 20.7291 75.7412
rfemur -19.4284 10.1573 21.1756
rtibia 25.344
rfoot -17.4389 -36.7756
rtoes 33.7079
lfemur -12.9578 -21.1024 -12.3989
ltibia 5.47975
lfoot -1.31889 24.1144
ltoes -0.802544
1041
root 7.8255 16.7635 -3.78594 7.20476 7.70645 2.24996
lowerback 2.83052 -0.444709 0.0709686
upperback 7.50018 -0.617966 0.855061
thorax 6.205 -0.324137 0.834464
lowerneck -12.1715 2.38262 -5.10513
upperneck 6.23399 3.61106 4.44871
head 3.65553 1.90148 2.42003
rclavicle -1.2921e-014 -1.98785e-015
rhumerus 17.206 -17.1718 -58.7293
rradius 22.7042
rwrist -34.5843
rhand -24.5794 35.6576
rfingers 7.12502
rthumb 1.91781 5.68652
lclavicle -1.2921e-014 -1.98785e-015
lhumerus 11.2849 8.22298 68.596
lradius 28.2817
lwrist -9.17437
lhand -3.5308 48.6537
lfingers 7.12502
lthumb 22.2045 77.3983
rfemur -19.7783 9.99392 21.0414
rtibia 25.4694
rfoot -17.0017 -36.7633
rtoes 33.1468
lfemur -13.1906 -21.0958 -12.41
ltibia 5.32333
lfoot -0.97295 24.0529
ltoes -1.5509
1042
root 7.82031 16.7551 -3.83255 7.32257 7.85022 2.02795
lowerback 3.24678 -0.5291 0.284527
upperback 7.52641 -0.73088 0.907513
thorax 5.99492 -0.369358 0.770238
lowerneck -11.8631 2.37077 -5.15875
upperneck 5.5916 3.59397 4.54962
head 3.40826 1.89872 2.44314
rclavicle 1.70955e-014 -1.55052e-014
rhumerus 17.1043 -16.342 -59.8758
rradius 22.2565
rwrist -34.1076
rhand -24.2248 35.6951
rfingers 7.12502
rthumb 2.26027 5.72735
lclavicle 1.70955e-014 -1.55052e-014
lhumerus 10.9698 7.54959 69.8572
lradius 28.2278
lwrist -9.05876
lhand -1.95781 49.9888
lfingers 7.12502
lthumb 23.7139 78.5459
rfemur -20.136 9.76854 21.2895
rtibia 25.5314
rfoot -16.4025 -36.7908
rtoes 32.1779
lfemur -13.6751 -21.128 -11.9827
ltibia 5.44303
lfoot -1.12983 24.0258
ltoes 0.580899
1043
root 7.81966 16.7517 -3.86877 7.43202 7.9749 1.84533
lowerback 3.49132 -0.580507 0.503613
upperback 7.58339 -0.79957 0.951368
thorax 5.91503 -0.392287 0.694226
lowerneck -11.2003 2.41782 -5.18249
upperneck 4.377 3.66698 4.35289
head 3.25255 1.91353 2.61202
rclavicle -2.76311e-014 -5.1684e-015
rhumerus 16.7259 -15.1231 -60.769
rradius 21.9815
rwrist -34.1027
rhand -24.6916 36.2809
rfingers 7.12502
rthumb 1.80945 6.30882
lclavicle -2.76311e-014 -5.1684e-015
lhumerus 10.798 7.3393 71.4636
lradius 27.8454
lwrist -9.32051
lhand -1.69664 49.7846
lfingers 7.12502
lthumb 23.9643 78.309
rfemur -20.3458 9.51832 21.46
rtibia 25.4091
rfoot -16.1937 -36.6289
rtoes 32.1052
lfemur -14.5602 -21.1443 -11.6424
ltibia 6.52612
lfoot -2.18799 23.9168
ltoes 3.40846
1044
root 7.81792 16.747 -3.89656 7.43803 8.06331 1.74197
lowerback 3.73169 -0.54415 0.533383
upperback 7.71904 -0.751537 1.01746
thorax 5.92356 -0.368608 0.749119
lowerneck -10.6758 2.43118 -5.12721
upperneck 3.59661 3.66851 4.35118
head 2.88318 1.91799 2.56353
rclavicle -2.78299e-015 -1.70955e-014
rhumerus 16.0641 -13.5345 -61.2441
rradius 21.9686
rwrist -34.6903
rhand -25.1907 36.5244
rfingers 7.12502
rthumb 1.32738 6.54877
lclavicle -2.78299e-015 -1.70955e-014
lhumerus 10.5659 6.84877 73.1773
lradius 27.5985
lwrist -9.09612
lhand -2.19228 48.9148
lfingers 7.12502
lthumb 23.489 77.5008
rfemur -20.3638 9.25146 21.5798
rtibia 25.1981
rfoot -15.7406 -36.5685
rtoes 31.6304
lfemur -15.3373 -21.1585 -11.4716
ltibia 7.74011
lfoot -2.81474 23.7821
ltoes 2.38264
1045
root 7.81569 16.7421 -3.92711 7.39592 8.15673 1.45706
lowerback 4.08316 -0.46585 0.714121
upperback 7.82254 -0.647553 1.13991
thorax 5.83323 -0.310375 0.779541
lowerneck -10.2517 2.36241 -5.10088
upperneck 3.02911 3.55657 4.51308
head 2.61435 1.8698 2.58045
rclavicle -1.98785e-015 -2.98177e-014
rhumerus 15.2125 -11.9795 -61.6741
rradius 22.077
rwrist -35.2508
rhand -25.6723 36.356
rfingers 7.12502
rthumb 0.862212 6.37795
lclavicle -1.98785e-015 -2.98177e-014
lhumerus 9.99864 5.42021 74.4463
lradius 27.7743
lwrist -8.1586
lhand -2.11434 49.1137
lfingers 7.12502
lthumb 23.5637 77.6901
rfemur -20.4401 9.17763 21.876
rtibia 25.1572
rfoot -16.1847 -36.4083
rtoes 32.969
lfemur -15.7041 -21.1624 -11.1127
ltibia 8.14486
lfoot -2.69878 23.7763
ltoes 1.01697
